<svg id="svg" xmlns="http://www.w3.org/2000/svg" xmlns:xlink="http://www.w3.org/1999/xlink" width="400" height="459.64912280701753" viewBox="0, 0, 400,459.64912280701753"><g id="svgg"><path id="path0" d="M99.265 57.208 L 0.284 114.035 0.142 228.684 L 0.000 343.333 18.421 353.456 C 37.490 363.935,173.164 442.225,190.551 452.783 C 200.369 458.745,200.536 458.689,242.174 435.522 L 283.948 412.281 284.049 296.491 L 284.151 180.702 255.233 164.265 L 226.316 147.829 225.391 259.252 L 224.466 370.676 211.920 376.658 C 199.825 382.426,198.945 382.376,187.455 375.275 L 175.536 367.909 174.610 257.862 L 173.684 147.815 147.368 163.786 C 132.895 172.570,120.783 179.976,120.452 180.244 C 120.122 180.513,118.737 214.673,117.374 256.156 C 116.011 297.638,114.702 331.831,114.465 332.138 C 114.229 332.446,103.377 326.338,90.351 318.566 L 66.667 304.433 66.667 228.363 L 66.667 152.292 131.412 114.743 C 167.022 94.090,198.240 77.193,200.784 77.193 C 203.329 77.193,233.799 93.506,268.495 113.445 L 331.579 149.697 333.333 265.492 L 335.088 381.287 366.667 363.066 L 398.246 344.845 399.170 229.035 L 400.093 113.225 301.496 56.613 C 247.267 25.476,201.852 0.086,200.572 0.190 C 199.292 0.295,153.704 25.953,99.265 57.208 " stroke="none" fill="#000000" fill-rule="evenodd"></path></g></svg>